<svg width="126" height="22" viewBox="0 0 126 22" fill="none" xmlns="http://www.w3.org/2000/svg">
<path d="M11.5391 14.4453C11.5391 16.8424 11.1562 18.6426 10.3906 19.8457C9.625 21.0397 8.42188 21.6367 6.78125 21.6367C5.49609 21.6367 4.46615 21.0579 3.69141 19.9004L3.56836 21.3633H0V0.363281H3.86914V7.77344C4.59831 6.78906 5.5599 6.29688 6.75391 6.29688C8.39453 6.29688 9.59766 6.89388 10.3633 8.08789C11.1289 9.27279 11.5208 11.0137 11.5391 13.3105V14.4453ZM7.66992 13.4746C7.66992 11.916 7.51953 10.8724 7.21875 10.3438C6.91797 9.80599 6.39388 9.53711 5.64648 9.53711C4.83529 9.53711 4.24284 9.90625 3.86914 10.6445V17.3848C4.21549 18.0775 4.81706 18.4238 5.67383 18.4238C6.41211 18.4238 6.92253 18.1823 7.20508 17.6992C7.49674 17.2161 7.65169 16.2773 7.66992 14.8828V13.4746Z" fill="white"/>
<path d="M14.5321 13.4883C14.5321 11.2461 15.0608 9.48698 16.118 8.21094C17.1753 6.9349 18.6382 6.29688 20.5067 6.29688C22.3934 6.29688 23.8654 6.9349 24.9227 8.21094C25.98 9.48698 26.5087 11.2552 26.5087 13.5156V14.459C26.5087 16.7103 25.9846 18.4694 24.9364 19.7363C23.8882 21.0033 22.4208 21.6367 20.5341 21.6367C18.6382 21.6367 17.1617 21.0033 16.1044 19.7363C15.0562 18.4603 14.5321 16.6921 14.5321 14.4316V13.4883ZM18.4149 14.459C18.4149 17.1022 19.1213 18.4238 20.5341 18.4238C21.8374 18.4238 22.5393 17.321 22.6395 15.1152L22.6532 13.4883C22.6532 12.1393 22.4664 11.1413 22.0927 10.4941C21.719 9.83789 21.1903 9.50977 20.5067 9.50977C19.8505 9.50977 19.3355 9.83789 18.9618 10.4941C18.5972 11.1413 18.4149 12.1393 18.4149 13.4883V14.459Z" fill="white"/>
<path d="M34.697 10.959L36.4197 6.57031H40.5212L37.1443 13.8027L40.6443 21.3633H36.5291L34.7107 16.7285L32.906 21.3633H28.7771L32.2771 13.8027L28.9275 6.57031H33.0427L34.697 10.959Z" fill="white"/>
<path d="M56.4741 18.4238C57.5952 18.4238 58.1649 17.6947 58.1831 16.2363H61.8198C61.8016 17.8496 61.3049 19.153 60.3296 20.1465C59.3543 21.14 58.0965 21.6367 56.5562 21.6367C54.6512 21.6367 53.1974 21.0443 52.1948 19.8594C51.1922 18.6745 50.6818 16.929 50.6636 14.623V13.4473C50.6636 11.123 51.1558 9.35026 52.1402 8.12891C53.1336 6.90755 54.5965 6.29688 56.5288 6.29688C58.1603 6.29688 59.4455 6.80273 60.3843 7.81445C61.3231 8.81706 61.8016 10.2435 61.8198 12.0938H58.1831C58.174 11.2643 58.0373 10.6263 57.773 10.1797C57.5086 9.73307 57.0711 9.50977 56.4605 9.50977C55.786 9.50977 55.3029 9.7513 55.0112 10.2344C54.7196 10.7083 54.5646 11.6335 54.5464 13.0098V14.5137C54.5464 15.7168 54.6057 16.5599 54.7241 17.043C54.8426 17.5169 55.0386 17.8678 55.312 18.0957C55.5855 18.3145 55.9728 18.4238 56.4741 18.4238Z" fill="white"/>
<path d="M72.4281 10.3027L71.143 10.1934C70.0857 10.1934 69.3702 10.6582 68.9965 11.5879V21.3633H65.1137V6.57031H68.7641L68.8734 8.16992C69.4841 6.92122 70.3272 6.29688 71.4027 6.29688C71.8402 6.29688 72.1957 6.35612 72.4691 6.47461L72.4281 10.3027Z" fill="white"/>
<path d="M81.5188 21.6367C79.5319 21.6367 77.9824 21.0443 76.8704 19.8594C75.7584 18.6745 75.2024 16.9792 75.2024 14.7734V13.5977C75.2024 11.2643 75.7128 9.46419 76.7337 8.19727C77.7545 6.93034 79.2174 6.29688 81.1223 6.29688C82.9817 6.29688 84.3808 6.89388 85.3196 8.08789C86.2584 9.27279 86.7369 11.0319 86.7552 13.3652V15.2656H79.0579C79.1126 16.3594 79.3541 17.1615 79.7825 17.6719C80.2109 18.1732 80.8717 18.4238 81.7649 18.4238C83.0592 18.4238 84.1393 17.9818 85.0052 17.0977L86.5227 19.4355C86.0488 20.0918 85.3606 20.625 84.4583 21.0352C83.5559 21.4362 82.5761 21.6367 81.5188 21.6367ZM79.0852 12.5586H82.9544V12.2031C82.9361 11.319 82.7903 10.6491 82.5169 10.1934C82.2434 9.73763 81.7695 9.50977 81.095 9.50977C80.4205 9.50977 79.9283 9.7513 79.6184 10.2344C79.3177 10.7174 79.1399 11.4922 79.0852 12.5586Z" fill="white"/>
<path d="M97.09 21.3633C96.9806 21.1354 96.8712 20.7526 96.7619 20.2148C96.0692 21.1628 95.1304 21.6367 93.9455 21.6367C92.7059 21.6367 91.6759 21.2266 90.8556 20.4062C90.0444 19.5859 89.6388 18.5241 89.6388 17.2207C89.6388 15.6712 90.131 14.4727 91.1154 13.625C92.1089 12.7773 93.5353 12.3444 95.3947 12.3262H96.5705V11.1367C96.5705 10.4714 96.4565 10.002 96.2287 9.72852C96.0008 9.45508 95.6681 9.31836 95.2306 9.31836C94.2645 9.31836 93.7814 9.88346 93.7814 11.0137H89.9123C89.9123 9.64648 90.4227 8.52083 91.4435 7.63672C92.4735 6.74349 93.7723 6.29688 95.34 6.29688C96.9624 6.29688 98.2156 6.7207 99.0998 7.56836C99.993 8.4069 100.44 9.61003 100.44 11.1777V18.1367C100.458 19.4128 100.64 20.4108 100.986 21.1309V21.3633H97.09ZM94.8068 18.6016C95.2352 18.6016 95.5998 18.515 95.9005 18.3418C96.2013 18.1686 96.4246 17.9635 96.5705 17.7266V14.6504H95.6408C94.9845 14.6504 94.465 14.86 94.0822 15.2793C93.7085 15.6986 93.5216 16.2591 93.5216 16.9609C93.5216 18.0547 93.95 18.6016 94.8068 18.6016Z" fill="white"/>
<path d="M108.86 2.93359V6.57031H110.843V9.48242H108.86V16.8242C108.86 17.4076 108.938 17.8086 109.093 18.0273C109.257 18.2461 109.567 18.3555 110.022 18.3555C110.396 18.3555 110.702 18.3236 110.939 18.2598L110.911 21.2676C110.255 21.5137 109.544 21.6367 108.778 21.6367C106.281 21.6367 105.019 20.2057 104.991 17.3438V9.48242H103.282V6.57031H104.991V2.93359H108.86Z" fill="white"/>
<path d="M120.07 21.6367C118.083 21.6367 116.534 21.0443 115.422 19.8594C114.31 18.6745 113.754 16.9792 113.754 14.7734V13.5977C113.754 11.2643 114.264 9.46419 115.285 8.19727C116.306 6.93034 117.769 6.29688 119.674 6.29688C121.533 6.29688 122.932 6.89388 123.871 8.08789C124.81 9.27279 125.288 11.0319 125.307 13.3652V15.2656H117.609C117.664 16.3594 117.906 17.1615 118.334 17.6719C118.762 18.1732 119.423 18.4238 120.316 18.4238C121.611 18.4238 122.691 17.9818 123.557 17.0977L125.074 19.4355C124.6 20.0918 123.912 20.625 123.01 21.0352C122.107 21.4362 121.128 21.6367 120.07 21.6367ZM117.637 12.5586H121.506V12.2031C121.488 11.319 121.342 10.6491 121.068 10.1934C120.795 9.73763 120.321 9.50977 119.646 9.50977C118.972 9.50977 118.48 9.7513 118.17 10.2344C117.869 10.7174 117.691 11.4922 117.637 12.5586Z" fill="white"/>
</svg>
