<svg width="44" height="50" viewBox="0 0 44 50" fill="none" xmlns="http://www.w3.org/2000/svg">
<path d="M19.0414 1.67693C20.8767 0.636715 23.1234 0.636715 24.9586 1.67693L32.875 6.16395L40.7191 10.7762C42.5375 11.8455 43.6609 13.7912 43.6777 15.9007L43.75 25L43.6777 34.0993C43.6609 36.2088 42.5375 38.1545 40.7191 39.2238L32.875 43.8361L24.9586 48.3231C23.1233 49.3633 20.8766 49.3633 19.0414 48.3231L11.125 43.8361L3.28093 39.2238C1.46245 38.1545 0.339101 36.2088 0.322332 34.0993L0.25 25L0.322332 15.9007C0.339101 13.7912 1.46245 11.8455 3.28093 10.7762L11.125 6.16395L19.0414 1.67693Z" fill="url(#paint0_linear_30_4377)"/>
<defs>
<linearGradient id="paint0_linear_30_4377" x1="22" y1="0" x2="22" y2="50" gradientUnits="userSpaceOnUse">
<stop stop-color="#F19A16"/>
<stop offset="1" stop-color="#F16C16"/>
</linearGradient>
</defs>
</svg>
