<svg width="36" height="36" viewBox="0 0 36 36" fill="none" xmlns="http://www.w3.org/2000/svg">
<path d="M18.1888 0.731445C8.49386 0.731445 0.634766 8.59054 0.634766 18.2855C0.634766 27.9804 8.49386 35.8395 18.1888 35.8395C27.8838 35.8395 35.7429 27.9804 35.7429 18.2855C35.7429 8.59054 27.8838 0.731445 18.1888 0.731445ZM25.3293 15.1111C25.3366 15.2611 25.3384 15.411 25.3384 15.5573C25.3384 20.1287 21.8624 25.3967 15.5027 25.3967C13.6235 25.3998 11.7834 24.8601 10.2035 23.8424C10.4723 23.8754 10.7485 23.8882 11.0282 23.8882C12.6483 23.8882 14.1386 23.3378 15.3217 22.4089C14.6007 22.3947 13.9021 22.156 13.3233 21.7259C12.7444 21.2959 12.3141 20.696 12.0924 20.0098C12.6102 20.1083 13.1436 20.0876 13.6522 19.9495C12.8697 19.7912 12.1659 19.3672 11.6604 18.7493C11.1548 18.1314 10.8785 17.3577 10.8783 16.5593V16.5173C11.3446 16.7751 11.8785 16.9324 12.4453 16.9507C11.7117 16.4623 11.1924 15.7121 10.9936 14.8535C10.7947 13.995 10.9314 13.0929 11.3756 12.3317C12.2441 13.3996 13.3272 14.2732 14.5547 14.8959C15.7822 15.5187 17.1268 15.8767 18.5015 15.9468C18.3267 15.205 18.4019 14.4262 18.7155 13.7315C19.029 13.0368 19.5632 12.4652 20.2351 12.1055C20.907 11.7458 21.6789 11.6181 22.4308 11.7423C23.1828 11.8666 23.8726 12.2358 24.3931 12.7925C25.1669 12.6394 25.9089 12.3556 26.5873 11.9532C26.3294 12.7544 25.7895 13.4347 25.0678 13.8677C25.7532 13.7852 26.4225 13.6009 27.0536 13.321C26.59 14.0156 26.0061 14.6219 25.3293 15.1111V15.1111Z" fill="white"/>
</svg>
